{
  "accessors": [
    {
      "bufferView": 2,
      "componentType": 5126,
      "count": 8569,
      "max": [
        0.13690000772476196,
        0.057100001722574234,
        0.17270001769065857
      ],
      "min": [
        0.0,
        0.0,
        0.0
      ],
      "type": "VEC3"
    },
    {
      "bufferView": 2,
      "byteOffset": 102828,
      "componentType": 5126,
      "count": 8569,
      "max": [
        0.9977121949195862,
        0.9997450709342957,
        0.9993506073951721
      ],
      "min": [
        -0.9987009167671204,
        -0.9998980164527893,
        -0.9954904317855835
      ],
      "type": "VEC3"
    },
    {
      "bufferView": 1,
      "componentType": 5126,
      "count": 8569,
      "max": [
        0.989870011806488,
        0.9901900291442871
      ],
      "min": [
        0.009829999879002571,
        0.009949999861419201
      ],
      "type": "VEC2"
    },
    {
      "bufferView": 0,
      "componentType": 5125,
      "count": 36600,
      "type": "SCALAR"
    }
  ],
  "asset": {
    "extras": {
      "author": "580000158 (https://sketchfab.com/580000158)",
      "license": "CC-BY-4.0 (http://creativecommons.org/licenses/by/4.0/)",
      "source": "https://sketchfab.com/3d-models/duodenum-pancreas-spleen-5ea30b7d1fd748a3ae989efbb3b65936",
      "title": "Duodenum, Pancreas, Spleen"
    },
    "generator": "Sketchfab-12.65.0",
    "version": "2.0"
  },
  "bufferViews": [
    {
      "buffer": 0,
      "byteLength": 146400,
      "name": "floatBufferViews",
      "target": 34963
    },
    {
      "buffer": 0,
      "byteLength": 68552,
      "byteOffset": 146400,
      "byteStride": 8,
      "name": "floatBufferViews",
      "target": 34962
    },
    {
      "buffer": 0,
      "byteLength": 205656,
      "byteOffset": 214952,
      "byteStride": 12,
      "name": "floatBufferViews",
      "target": 34962
    }
  ],
  "buffers": [
    {
      "byteLength": 420608,
      "uri": "scene.bin"
    }
  ],
  "images": [
    {
      "uri": "textures/material0_baseColor.jpeg"
    }
  ],
  "materials": [
    {
      "doubleSided": true,
      "name": "material0",
      "pbrMetallicRoughness": {
        "baseColorTexture": {
          "index": 0
        },
        "metallicFactor": 0.0,
        "roughnessFactor": 0.6
      }
    }
  ],
  "meshes": [
    {
      "name": "Object_0",
      "primitives": [
        {
          "attributes": {
            "NORMAL": 1,
            "POSITION": 0,
            "TEXCOORD_0": 2
          },
          "indices": 3,
          "material": 0,
          "mode": 4
        }
      ]
    }
  ],
  "nodes": [
    {
      "children": [
        1
      ],
      "matrix": [
        25.301315307617188,
        -4.0687617536765856e-15,
        -1.6709308352054597e-14,
        0.0,
        1.6709308352054597e-14,
        -1.6854061684690516e-14,
        25.301315307617188,
        0.0,
        -4.0687617536765895e-15,
        -25.301315307617188,
        -1.6854061684690516e-14,
        0.0,
        8.326672684688674e-17,
        0.3371001183986663,
        0.13409990072250375,
        1.0
      ],
      "name": "Sketchfab_model"
    },
    {
      "children": [
        2
      ],
      "matrix": [
        1.0,
        0.0,
        0.0,
        0.0,
        0.0,
        1.0,
        0.0,
        0.0,
        0.0,
        0.0,
        1.0,
        0.0,
        0.13830000162124634,
        -0.09560000151395798,
        0.08219999819993973,
        1.0
      ],
      "name": "Model.obj.cleaner.materialmerger.gles"
    },
    {
      "children": [
        3
      ],
      "name": "Object_2"
    },
    {
      "mesh": 0,
      "name": "Object_3"
    }
  ],
  "samplers": [
    {
      "magFilter": 9729,
      "minFilter": 9987,
      "wrapS": 10497,
      "wrapT": 10497
    }
  ],
  "scene": 0,
  "scenes": [
    {
      "name": "Sketchfab_Scene",
      "nodes": [
        0
      ]
    }
  ],
  "textures": [
    {
      "sampler": 0,
      "source": 0
    }
  ]
}
