{
  "accessors": [
    {
      "bufferView": 2,
      "componentType": 5126,
      "count": 39000,
      "max": [0.9472800493240356, 0.949483335018158, 0.9434441924095154],
      "min": [-0.9472770690917969, -0.9495120644569397, -0.9430655837059021],
      "type": "VEC3"
    },
    {
      "bufferView": 2,
      "byteOffset": 468000,
      "componentType": 5126,
      "count": 39000,
      "max": [0.9986642003059387, 0.9999778270721436, 0.9999678134918213],
      "min": [-0.9986642599105835, -0.999995231628418, -0.9999455809593201],
      "type": "VEC3"
    },
    {
      "bufferView": 1,
      "componentType": 5126,
      "count": 39000,
      "max": [0.9939370155334473, 0.4618804454803467],
      "min": [0.006063032895326614, 0.010501628741621971],
      "type": "VEC2"
    },
    {
      "bufferView": 0,
      "componentType": 5125,
      "count": 59760,
      "type": "SCALAR"
    },
    {
      "bufferView": 2,
      "byteOffset": 936000,
      "componentType": 5126,
      "count": 3840,
      "max": [0.921228289604187, 0.9218018054962158, 0.9165888428688049],
      "min": [-0.921228289604187, -0.9218018054962158, -0.9165888428688049],
      "type": "VEC3"
    },
    {
      "bufferView": 2,
      "byteOffset": 982080,
      "componentType": 5126,
      "count": 3840,
      "max": [0.9996798038482666, 0.992928147315979, 0.9888002872467041],
      "min": [-0.9996798634529114, -0.992928147315979, -0.9888004064559937],
      "type": "VEC3"
    },
    {
      "bufferView": 1,
      "byteOffset": 312000,
      "componentType": 5126,
      "count": 3840,
      "max": [0.9939370155334473, 0.4618804454803467],
      "min": [0.006063032895326614, 0.010501628741621971],
      "type": "VEC2"
    },
    {
      "bufferView": 0,
      "byteOffset": 239040,
      "componentType": 5125,
      "count": 5760,
      "type": "SCALAR"
    }
  ],
  "asset": {
    "extras": {
      "author": "tamminen (https://sketchfab.com/tamminen)",
      "license": "CC-BY-4.0 (http://creativecommons.org/licenses/by/4.0/)",
      "source": "https://sketchfab.com/3d-models/inverse-space-lens-21f4507235bd4016a2895548c35f625a",
      "title": "Inverse Space Lens"
    },
    "generator": "Sketchfab-16.14.0",
    "version": "2.0"
  },
  "bufferViews": [
    {
      "buffer": 0,
      "byteLength": 262080,
      "name": "floatBufferViews",
      "target": 34963
    },
    {
      "buffer": 0,
      "byteLength": 342720,
      "byteOffset": 262080,
      "byteStride": 8,
      "name": "floatBufferViews",
      "target": 34962
    },
    {
      "buffer": 0,
      "byteLength": 1028160,
      "byteOffset": 604800,
      "byteStride": 12,
      "name": "floatBufferViews",
      "target": 34962
    }
  ],
  "buffers": [
    {
      "byteLength": 1632960,
      "uri": "scene.bin"
    }
  ],
  "extensionsUsed": [
    "KHR_materials_clearcoat",
    "KHR_materials_transmission",
    "KHR_materials_specular"
  ],
  "materials": [
    {
      "alphaMode": "BLEND",
      "doubleSided": true,
      "extensions": {
        "KHR_materials_clearcoat": {
          "clearcoatFactor": 1.0,
          "clearcoatRoughnessFactor": 0.04
        },
        "KHR_materials_specular": {
          "specularColorFactor": [1.0, 1.0, 1.0],
          "specularFactor": 1.0
        },
        "KHR_materials_transmission": {
          "transmissionFactor": 1.0
        }
      },
      "name": "Material.001",
      "pbrMetallicRoughness": {
        "baseColorFactor": [
          0.14197608860269142, 0.15820164039136977, 0.26778152062843336, 0.25
        ],
        "roughnessFactor": 0.2192688971151925
      }
    },
    {
      "doubleSided": true,
      "name": "Material.002",
      "pbrMetallicRoughness": {
        "baseColorFactor": [0.0296189, 0.0298921, 0.0597384, 1.0],
        "metallicFactor": 0.0,
        "roughnessFactor": 0.5
      }
    }
  ],
  "meshes": [
    {
      "name": "Object_0",
      "primitives": [
        {
          "attributes": {
            "NORMAL": 1,
            "POSITION": 0,
            "TEXCOORD_0": 2
          },
          "indices": 3,
          "material": 0,
          "mode": 4
        }
      ]
    },
    {
      "name": "Object_1",
      "primitives": [
        {
          "attributes": {
            "NORMAL": 5,
            "POSITION": 4,
            "TEXCOORD_0": 6
          },
          "indices": 7,
          "material": 1,
          "mode": 4
        }
      ]
    }
  ],
  "nodes": [
    {
      "children": [1],
      "matrix": [
        1.0, 0.0, 0.0, 0.0, 0.0, 2.220446049250313e-16, -1.0, 0.0, 0.0, 1.0,
        2.220446049250313e-16, 0.0, 0.0, 0.0, 0.0, 1.0
      ],
      "name": "Sketchfab_model"
    },
    {
      "children": [2],
      "name": "root"
    },
    {
      "children": [3],
      "matrix": [
        1.0, 0.0, 0.0, 0.0, 0.0, 2.220446049250313e-16, 1.0, 0.0, 0.0, -1.0,
        2.220446049250313e-16, 0.0, 0.0, 0.0, 0.0, 1.0
      ],
      "name": "GLTF_SceneRootNode"
    },
    {
      "children": [4, 5],
      "name": "Icosphere_0"
    },
    {
      "mesh": 0,
      "name": "Object_4"
    },
    {
      "mesh": 1,
      "name": "Object_5"
    }
  ],
  "scene": 0,
  "scenes": [
    {
      "name": "Sketchfab_Scene",
      "nodes": [0]
    }
  ]
}
